<?xml version="1.0" standalone="no"?>
<!DOCTYPE svg PUBLIC "-//W3C//DTD SVG 20010904//EN"
 "http://www.w3.org/TR/2001/REC-SVG-20010904/DTD/svg10.dtd">
<svg version="1.0" xmlns="http://www.w3.org/2000/svg"
 width="130.000000pt" height="70.000000pt" viewBox="0 0 535.000000 266.000000"
 preserveAspectRatio="xMidYMid meet">
<metadata>
Created by potrace 1.15, written by Peter Selinger 2001-2017
</metadata>
<g transform="translate(0.000000,266.000000) scale(0.100000,-0.100000)"
fill="#000000" stroke="none">
<path d="M4505 2361 c-32 -14 -47 -31 -72 -77 -61 -116 -242 -560 -336 -825
-44 -122 -127 -387 -127 -404 0 -1 11 -6 25 -9 26 -7 85 17 85 33 0 31 384
571 396 558 2 -2 -17 -55 -42 -118 -50 -128 -84 -246 -84 -296 0 -46 24 -99
51 -114 13 -6 46 -12 75 -12 89 0 180 57 249 157 34 50 37 58 31 101 -10 62
-30 68 -69 19 -71 -90 -145 -156 -169 -152 -40 5 -33 50 47 283 41 121 75 230
75 242 0 29 -36 53 -81 53 -66 0 -204 -126 -304 -277 -15 -24 -29 -43 -31 -43
-15 0 158 407 295 694 96 201 93 236 -14 187z"/>
<path d="M3155 2181 c-99 -60 -268 -324 -350 -546 -48 -130 -92 -303 -101
-399 -4 -42 -10 -76 -14 -76 -3 0 -75 -79 -160 -175 -84 -96 -154 -175 -156
-175 -10 0 81 230 196 493 78 181 81 190 64 208 -18 20 -59 25 -83 10 -7 -5
-39 -54 -70 -110 -76 -137 -170 -268 -265 -368 -83 -88 -111 -104 -100 -55 4
15 40 113 81 219 40 105 73 201 73 212 0 29 -36 63 -63 59 -16 -2 -29 -20 -50
-73 -149 -364 -156 -377 -222 -441 -90 -89 -145 -95 -145 -16 0 45 51 194 136
397 104 252 87 230 201 255 168 36 193 58 134 114 -27 26 -34 28 -78 22 -26
-4 -56 -9 -65 -12 -14 -4 -10 10 18 71 19 41 32 80 29 85 -9 15 -78 12 -102
-5 -12 -8 -41 -50 -64 -93 -23 -42 -43 -78 -44 -80 -1 -1 -45 -10 -96 -19
-102 -17 -147 -41 -174 -93 -34 -66 -3 -81 112 -56 42 9 77 15 79 13 2 -1 -17
-46 -41 -98 -151 -334 -199 -513 -161 -602 24 -58 50 -72 130 -72 67 0 75 2
123 38 l51 38 26 -26 c59 -59 148 -20 256 111 38 47 70 84 70 82 0 -2 -20 -53
-43 -114 -32 -79 -63 -137 -112 -205 -87 -121 -118 -187 -123 -265 -4 -53 -1
-65 17 -83 27 -27 80 -27 113 -1 33 25 79 99 108 172 13 32 60 105 105 163 91
117 292 345 305 345 4 0 10 -13 13 -29 9 -43 53 -89 98 -101 68 -19 162 11
259 81 12 9 24 5 54 -15 72 -48 173 -29 264 50 l37 31 25 -27 c53 -57 177 -48
312 22 160 83 228 199 163 277 -33 38 -94 58 -220 71 -55 6 -106 13 -112 15
-25 9 -12 34 46 88 87 80 236 149 217 101 -9 -23 12 -44 44 -44 28 0 95 39
117 69 17 22 16 93 -1 117 -20 27 -130 25 -206 -4 -137 -53 -292 -170 -335
-252 -9 -18 -18 -54 -19 -81 -1 -38 4 -53 23 -73 30 -32 66 -43 204 -60 60 -8
113 -18 119 -24 29 -29 -58 -89 -172 -118 -68 -17 -96 -9 -106 31 -3 14 -12
25 -20 25 -8 0 -14 6 -14 13 -1 6 -7 25 -13 41 l-13 30 -71 -86 c-72 -85 -132
-126 -167 -112 -35 14 -31 27 93 328 71 171 81 202 72 223 -16 34 -55 47 -90
28 -32 -16 -118 -108 -134 -142 -8 -18 -6 -27 9 -44 21 -23 24 -14 -60 -214
-38 -92 -54 -118 -99 -162 -103 -99 -197 -78 -197 43 0 27 19 64 84 162 172
262 312 512 382 687 37 94 40 178 5 206 -30 25 -96 25 -136 0z m35 -124 c0
-33 -46 -141 -119 -282 -91 -175 -223 -407 -229 -401 -7 7 38 168 69 246 34
85 136 276 204 381 41 63 75 89 75 56z"/>
<path d="M3416 1917 c-38 -36 -49 -66 -44 -118 3 -29 7 -34 32 -37 16 -2 40 2
53 9 55 30 97 158 57 173 -34 13 -64 5 -98 -27z"/>
<path d="M1500 1459 c-62 -12 -233 -99 -302 -153 -90 -72 -139 -174 -117 -244
15 -47 65 -68 205 -86 77 -11 124 -21 134 -32 13 -14 12 -18 -16 -43 -36 -32
-125 -69 -190 -78 -42 -5 -44 -4 -65 32 -19 32 -26 36 -51 31 -24 -5 -28 -3
-28 18 0 32 -10 56 -22 56 -5 0 -49 -38 -97 -84 -96 -93 -149 -124 -221 -133
-59 -7 -100 14 -100 51 0 28 81 106 170 163 71 46 85 65 68 93 -20 31 -45 34
-103 10 -89 -36 -99 -24 -35 44 30 32 74 72 98 88 38 26 42 27 42 10 0 -38 25
-45 75 -23 36 16 50 29 65 63 11 24 20 51 20 60 0 29 -29 48 -76 48 -121 0
-311 -119 -370 -231 -24 -47 -15 -136 17 -162 23 -18 23 -19 4 -29 -40 -22
-105 -98 -107 -126 -6 -86 13 -121 79 -153 39 -19 56 -21 130 -16 102 6 174
38 276 122 64 53 67 54 67 30 0 -136 245 -122 427 24 89 70 118 161 69 214
-46 49 -66 55 -303 83 -29 4 -43 10 -43 20 0 29 104 119 179 157 88 44 106 46
97 14 -4 -18 0 -26 17 -34 32 -14 80 2 121 41 31 28 36 40 36 77 0 55 -8 67
-51 79 -38 11 -37 11 -99 -1z"/>
</g>
</svg>
